<mxfile host="app.diagrams.net" agent="Mozilla/5.0 (Windows NT 10.0; Win64; x64) AppleWebKit/537.36 (KHTML, like Gecko) Chrome/132.0.0.0 Safari/537.36" version="26.0.6">
  <diagram name="Page-1" id="bvPBSzS-I180N1wVtlMe">
    <mxGraphModel dx="2100" dy="1114" grid="1" gridSize="10" guides="1" tooltips="1" connect="1" arrows="1" fold="1" page="1" pageScale="1" pageWidth="827" pageHeight="1169" math="0" shadow="0">
      <root>
        <mxCell id="0" />
        <mxCell id="1" parent="0" />
        <mxCell id="tnOevVP8kK06ffzw8B7S-18" value="" style="shape=flexArrow;endArrow=classic;html=1;rounded=0;exitX=1;exitY=0.5;exitDx=0;exitDy=0;exitPerimeter=0;entryX=0;entryY=0.5;entryDx=0;entryDy=0;entryPerimeter=0;" edge="1" parent="1" source="tnOevVP8kK06ffzw8B7S-8" target="tnOevVP8kK06ffzw8B7S-13">
          <mxGeometry width="50" height="50" relative="1" as="geometry">
            <mxPoint x="120" y="720" as="sourcePoint" />
            <mxPoint x="370" y="420" as="targetPoint" />
          </mxGeometry>
        </mxCell>
        <mxCell id="tnOevVP8kK06ffzw8B7S-19" value="Web scraping" style="edgeLabel;html=1;align=center;verticalAlign=middle;resizable=0;points=[];" vertex="1" connectable="0" parent="tnOevVP8kK06ffzw8B7S-18">
          <mxGeometry x="-0.1243" y="4" relative="1" as="geometry">
            <mxPoint x="-29" y="6" as="offset" />
          </mxGeometry>
        </mxCell>
        <mxCell id="tnOevVP8kK06ffzw8B7S-23" value="" style="shape=flexArrow;endArrow=classic;html=1;rounded=0;exitX=1;exitY=0.5;exitDx=0;exitDy=0;exitPerimeter=0;entryX=0;entryY=0.5;entryDx=0;entryDy=0;entryPerimeter=0;" edge="1" parent="1" source="tnOevVP8kK06ffzw8B7S-6" target="tnOevVP8kK06ffzw8B7S-13">
          <mxGeometry width="50" height="50" relative="1" as="geometry">
            <mxPoint x="120" y="810" as="sourcePoint" />
            <mxPoint x="370" y="678" as="targetPoint" />
          </mxGeometry>
        </mxCell>
        <mxCell id="tnOevVP8kK06ffzw8B7S-24" value="Web scraping" style="edgeLabel;html=1;align=center;verticalAlign=middle;resizable=0;points=[];" vertex="1" connectable="0" parent="tnOevVP8kK06ffzw8B7S-23">
          <mxGeometry x="-0.1243" y="4" relative="1" as="geometry">
            <mxPoint x="-30" y="-4" as="offset" />
          </mxGeometry>
        </mxCell>
        <mxCell id="tnOevVP8kK06ffzw8B7S-3" value="Linkedin" style="shape=cylinder3;whiteSpace=wrap;html=1;boundedLbl=1;backgroundOutline=1;size=15;" vertex="1" parent="1">
          <mxGeometry x="50" y="40" width="60" height="80" as="geometry" />
        </mxCell>
        <mxCell id="tnOevVP8kK06ffzw8B7S-4" value="Data gouv" style="shape=cylinder3;whiteSpace=wrap;html=1;boundedLbl=1;backgroundOutline=1;size=15;" vertex="1" parent="1">
          <mxGeometry x="50" y="130" width="60" height="80" as="geometry" />
        </mxCell>
        <mxCell id="tnOevVP8kK06ffzw8B7S-5" value="OFGL" style="shape=cylinder3;whiteSpace=wrap;html=1;boundedLbl=1;backgroundOutline=1;size=15;" vertex="1" parent="1">
          <mxGeometry x="50" y="400" width="60" height="80" as="geometry" />
        </mxCell>
        <mxCell id="tnOevVP8kK06ffzw8B7S-6" value="Insee" style="shape=cylinder3;whiteSpace=wrap;html=1;boundedLbl=1;backgroundOutline=1;size=15;" vertex="1" parent="1">
          <mxGeometry x="50" y="220" width="60" height="80" as="geometry" />
        </mxCell>
        <mxCell id="tnOevVP8kK06ffzw8B7S-8" value="Banatic" style="shape=cylinder3;whiteSpace=wrap;html=1;boundedLbl=1;backgroundOutline=1;size=15;" vertex="1" parent="1">
          <mxGeometry x="50" y="310" width="60" height="80" as="geometry" />
        </mxCell>
        <mxCell id="tnOevVP8kK06ffzw8B7S-9" value="France marché" style="shape=cylinder3;whiteSpace=wrap;html=1;boundedLbl=1;backgroundOutline=1;size=15;" vertex="1" parent="1">
          <mxGeometry x="50" y="580" width="60" height="80" as="geometry" />
        </mxCell>
        <mxCell id="tnOevVP8kK06ffzw8B7S-7" value="Site de mairies" style="shape=cylinder3;whiteSpace=wrap;html=1;boundedLbl=1;backgroundOutline=1;size=15;" vertex="1" parent="1">
          <mxGeometry x="50" y="490" width="60" height="80" as="geometry" />
        </mxCell>
        <mxCell id="tnOevVP8kK06ffzw8B7S-10" value="" style="shape=flexArrow;endArrow=classic;html=1;rounded=0;exitX=1;exitY=0.5;exitDx=0;exitDy=0;exitPerimeter=0;entryX=0;entryY=0.5;entryDx=0;entryDy=0;entryPerimeter=0;" edge="1" parent="1" source="tnOevVP8kK06ffzw8B7S-14" target="tnOevVP8kK06ffzw8B7S-11">
          <mxGeometry width="50" height="50" relative="1" as="geometry">
            <mxPoint x="390" y="310" as="sourcePoint" />
            <mxPoint x="440" y="260" as="targetPoint" />
          </mxGeometry>
        </mxCell>
        <mxCell id="tnOevVP8kK06ffzw8B7S-12" value="Web scraping" style="edgeLabel;html=1;align=center;verticalAlign=middle;resizable=0;points=[];" vertex="1" connectable="0" parent="tnOevVP8kK06ffzw8B7S-10">
          <mxGeometry x="-0.1243" y="4" relative="1" as="geometry">
            <mxPoint x="54" y="-16" as="offset" />
          </mxGeometry>
        </mxCell>
        <mxCell id="tnOevVP8kK06ffzw8B7S-11" value="S3" style="shape=cylinder3;whiteSpace=wrap;html=1;boundedLbl=1;backgroundOutline=1;size=15;" vertex="1" parent="1">
          <mxGeometry x="360" y="470" width="90" height="100" as="geometry" />
        </mxCell>
        <mxCell id="tnOevVP8kK06ffzw8B7S-13" value="Fiches client en local" style="shape=cylinder3;whiteSpace=wrap;html=1;boundedLbl=1;backgroundOutline=1;size=15;" vertex="1" parent="1">
          <mxGeometry x="600" y="330" width="90" height="100" as="geometry" />
        </mxCell>
        <mxCell id="tnOevVP8kK06ffzw8B7S-14" value="Ministère transition écologique" style="shape=cylinder3;whiteSpace=wrap;html=1;boundedLbl=1;backgroundOutline=1;size=15;" vertex="1" parent="1">
          <mxGeometry x="50" y="670" width="60" height="80" as="geometry" />
        </mxCell>
        <mxCell id="tnOevVP8kK06ffzw8B7S-15" value="Wikipédia" style="shape=cylinder3;whiteSpace=wrap;html=1;boundedLbl=1;backgroundOutline=1;size=15;" vertex="1" parent="1">
          <mxGeometry x="50" y="850" width="60" height="80" as="geometry" />
        </mxCell>
        <mxCell id="tnOevVP8kK06ffzw8B7S-16" value="" style="shape=flexArrow;endArrow=classic;html=1;rounded=0;exitX=1;exitY=0.5;exitDx=0;exitDy=0;exitPerimeter=0;entryX=0;entryY=0.5;entryDx=0;entryDy=0;entryPerimeter=0;" edge="1" parent="1" source="tnOevVP8kK06ffzw8B7S-7" target="tnOevVP8kK06ffzw8B7S-11">
          <mxGeometry width="50" height="50" relative="1" as="geometry">
            <mxPoint x="120" y="720" as="sourcePoint" />
            <mxPoint x="370" y="420" as="targetPoint" />
          </mxGeometry>
        </mxCell>
        <mxCell id="tnOevVP8kK06ffzw8B7S-17" value="Google dorking &amp;amp;&lt;div&gt;Web scraping&lt;/div&gt;" style="edgeLabel;html=1;align=center;verticalAlign=middle;resizable=0;points=[];" vertex="1" connectable="0" parent="tnOevVP8kK06ffzw8B7S-16">
          <mxGeometry x="-0.1243" y="4" relative="1" as="geometry">
            <mxPoint as="offset" />
          </mxGeometry>
        </mxCell>
        <mxCell id="tnOevVP8kK06ffzw8B7S-20" value="" style="shape=flexArrow;endArrow=classic;html=1;rounded=0;exitX=1;exitY=0.5;exitDx=0;exitDy=0;exitPerimeter=0;entryX=0;entryY=0.5;entryDx=0;entryDy=0;entryPerimeter=0;" edge="1" parent="1" source="tnOevVP8kK06ffzw8B7S-15" target="tnOevVP8kK06ffzw8B7S-22">
          <mxGeometry width="50" height="50" relative="1" as="geometry">
            <mxPoint x="120" y="630" as="sourcePoint" />
            <mxPoint x="350" y="640" as="targetPoint" />
          </mxGeometry>
        </mxCell>
        <mxCell id="tnOevVP8kK06ffzw8B7S-21" value="Web scraping" style="edgeLabel;html=1;align=center;verticalAlign=middle;resizable=0;points=[];" vertex="1" connectable="0" parent="tnOevVP8kK06ffzw8B7S-20">
          <mxGeometry x="-0.1243" y="4" relative="1" as="geometry">
            <mxPoint x="43" y="-29" as="offset" />
          </mxGeometry>
        </mxCell>
        <mxCell id="tnOevVP8kK06ffzw8B7S-22" value="Datasets en local" style="shape=cylinder3;whiteSpace=wrap;html=1;boundedLbl=1;backgroundOutline=1;size=15;" vertex="1" parent="1">
          <mxGeometry x="360" y="600" width="90" height="100" as="geometry" />
        </mxCell>
        <mxCell id="tnOevVP8kK06ffzw8B7S-25" value="" style="shape=flexArrow;endArrow=classic;html=1;rounded=0;exitX=1;exitY=0.5;exitDx=0;exitDy=0;exitPerimeter=0;" edge="1" parent="1" source="tnOevVP8kK06ffzw8B7S-9">
          <mxGeometry width="50" height="50" relative="1" as="geometry">
            <mxPoint x="120" y="540" as="sourcePoint" />
            <mxPoint x="360" y="520" as="targetPoint" />
          </mxGeometry>
        </mxCell>
        <mxCell id="tnOevVP8kK06ffzw8B7S-26" value="&lt;span style=&quot;background-color: light-dark(#ffffff, var(--ge-dark-color, #121212)); color: light-dark(rgb(0, 0, 0), rgb(255, 255, 255));&quot;&gt;Web scraping&lt;/span&gt;" style="edgeLabel;html=1;align=center;verticalAlign=middle;resizable=0;points=[];" vertex="1" connectable="0" parent="tnOevVP8kK06ffzw8B7S-25">
          <mxGeometry x="-0.1243" y="4" relative="1" as="geometry">
            <mxPoint as="offset" />
          </mxGeometry>
        </mxCell>
        <mxCell id="tnOevVP8kK06ffzw8B7S-27" value="" style="shape=flexArrow;endArrow=classic;html=1;rounded=0;exitX=1;exitY=0.5;exitDx=0;exitDy=0;exitPerimeter=0;entryX=0;entryY=0.5;entryDx=0;entryDy=0;entryPerimeter=0;" edge="1" parent="1" source="tnOevVP8kK06ffzw8B7S-3" target="tnOevVP8kK06ffzw8B7S-13">
          <mxGeometry width="50" height="50" relative="1" as="geometry">
            <mxPoint x="170" y="240" as="sourcePoint" />
            <mxPoint x="420" y="230" as="targetPoint" />
          </mxGeometry>
        </mxCell>
        <mxCell id="tnOevVP8kK06ffzw8B7S-28" value="Web scraping &amp;amp; GenAI" style="edgeLabel;html=1;align=center;verticalAlign=middle;resizable=0;points=[];" vertex="1" connectable="0" parent="tnOevVP8kK06ffzw8B7S-27">
          <mxGeometry x="-0.1243" y="4" relative="1" as="geometry">
            <mxPoint x="-3" y="-23" as="offset" />
          </mxGeometry>
        </mxCell>
        <mxCell id="tnOevVP8kK06ffzw8B7S-29" value="" style="shape=flexArrow;endArrow=classic;html=1;rounded=0;exitX=1;exitY=0.5;exitDx=0;exitDy=0;exitPerimeter=0;entryX=0;entryY=0.5;entryDx=0;entryDy=0;entryPerimeter=0;" edge="1" parent="1" source="tnOevVP8kK06ffzw8B7S-4" target="tnOevVP8kK06ffzw8B7S-13">
          <mxGeometry width="50" height="50" relative="1" as="geometry">
            <mxPoint x="110" y="160" as="sourcePoint" />
            <mxPoint x="360" y="470" as="targetPoint" />
          </mxGeometry>
        </mxCell>
        <mxCell id="tnOevVP8kK06ffzw8B7S-30" value="Web scraping" style="edgeLabel;html=1;align=center;verticalAlign=middle;resizable=0;points=[];" vertex="1" connectable="0" parent="tnOevVP8kK06ffzw8B7S-29">
          <mxGeometry x="-0.1243" y="4" relative="1" as="geometry">
            <mxPoint x="-22" y="-13" as="offset" />
          </mxGeometry>
        </mxCell>
        <mxCell id="tnOevVP8kK06ffzw8B7S-31" value="" style="shape=flexArrow;endArrow=classic;html=1;rounded=0;exitX=1;exitY=0.5;exitDx=0;exitDy=0;exitPerimeter=0;entryX=0;entryY=0.5;entryDx=0;entryDy=0;entryPerimeter=0;" edge="1" parent="1" source="tnOevVP8kK06ffzw8B7S-5" target="tnOevVP8kK06ffzw8B7S-11">
          <mxGeometry width="50" height="50" relative="1" as="geometry">
            <mxPoint x="130" y="100" as="sourcePoint" />
            <mxPoint x="380" y="410" as="targetPoint" />
          </mxGeometry>
        </mxCell>
        <mxCell id="tnOevVP8kK06ffzw8B7S-32" value="Web scraping" style="edgeLabel;html=1;align=center;verticalAlign=middle;resizable=0;points=[];" vertex="1" connectable="0" parent="tnOevVP8kK06ffzw8B7S-31">
          <mxGeometry x="-0.1243" y="4" relative="1" as="geometry">
            <mxPoint x="-22" y="-3" as="offset" />
          </mxGeometry>
        </mxCell>
        <mxCell id="tnOevVP8kK06ffzw8B7S-33" value="" style="shape=flexArrow;endArrow=classic;html=1;rounded=0;exitX=1;exitY=0.5;exitDx=0;exitDy=0;exitPerimeter=0;entryX=0;entryY=0.5;entryDx=0;entryDy=0;" edge="1" parent="1" source="tnOevVP8kK06ffzw8B7S-11" target="tnOevVP8kK06ffzw8B7S-35">
          <mxGeometry width="50" height="50" relative="1" as="geometry">
            <mxPoint x="460" y="529.5" as="sourcePoint" />
            <mxPoint x="680" y="520" as="targetPoint" />
          </mxGeometry>
        </mxCell>
        <mxCell id="tnOevVP8kK06ffzw8B7S-35" value="Architecture agentique et RAG" style="whiteSpace=wrap;html=1;aspect=fixed;" vertex="1" parent="1">
          <mxGeometry x="605" y="480" width="80" height="80" as="geometry" />
        </mxCell>
        <mxCell id="tnOevVP8kK06ffzw8B7S-36" value="" style="shape=flexArrow;endArrow=classic;html=1;rounded=0;exitX=0.5;exitY=0;exitDx=0;exitDy=0;entryX=0.5;entryY=1;entryDx=0;entryDy=0;entryPerimeter=0;" edge="1" parent="1" source="tnOevVP8kK06ffzw8B7S-35" target="tnOevVP8kK06ffzw8B7S-13">
          <mxGeometry width="50" height="50" relative="1" as="geometry">
            <mxPoint x="460" y="530" as="sourcePoint" />
            <mxPoint x="540" y="530" as="targetPoint" />
          </mxGeometry>
        </mxCell>
        <mxCell id="tnOevVP8kK06ffzw8B7S-37" value="Frontend (streamlit)" style="rounded=0;whiteSpace=wrap;html=1;" vertex="1" parent="1">
          <mxGeometry x="800" y="350" width="120" height="60" as="geometry" />
        </mxCell>
        <mxCell id="tnOevVP8kK06ffzw8B7S-38" value="" style="shape=flexArrow;endArrow=classic;html=1;rounded=0;exitX=1;exitY=0.5;exitDx=0;exitDy=0;entryX=0;entryY=0.5;entryDx=0;entryDy=0;exitPerimeter=0;" edge="1" parent="1" source="tnOevVP8kK06ffzw8B7S-13" target="tnOevVP8kK06ffzw8B7S-37">
          <mxGeometry width="50" height="50" relative="1" as="geometry">
            <mxPoint x="655" y="490" as="sourcePoint" />
            <mxPoint x="655" y="440" as="targetPoint" />
          </mxGeometry>
        </mxCell>
        <mxCell id="tnOevVP8kK06ffzw8B7S-55" value="Inputs SFIL" style="shape=cylinder3;whiteSpace=wrap;html=1;boundedLbl=1;backgroundOutline=1;size=15;" vertex="1" parent="1">
          <mxGeometry x="50" y="760" width="60" height="80" as="geometry" />
        </mxCell>
        <mxCell id="tnOevVP8kK06ffzw8B7S-56" value="" style="shape=flexArrow;endArrow=classic;html=1;rounded=0;exitX=1;exitY=0.5;exitDx=0;exitDy=0;exitPerimeter=0;entryX=0;entryY=0;entryDx=0;entryDy=67.5;entryPerimeter=0;" edge="1" parent="1" source="tnOevVP8kK06ffzw8B7S-55" target="tnOevVP8kK06ffzw8B7S-11">
          <mxGeometry width="50" height="50" relative="1" as="geometry">
            <mxPoint x="120" y="720" as="sourcePoint" />
            <mxPoint x="370" y="530" as="targetPoint" />
          </mxGeometry>
        </mxCell>
        <mxCell id="tnOevVP8kK06ffzw8B7S-57" value="Data retrieval" style="edgeLabel;html=1;align=center;verticalAlign=middle;resizable=0;points=[];" vertex="1" connectable="0" parent="tnOevVP8kK06ffzw8B7S-56">
          <mxGeometry x="-0.1243" y="4" relative="1" as="geometry">
            <mxPoint x="33" y="-12" as="offset" />
          </mxGeometry>
        </mxCell>
      </root>
    </mxGraphModel>
  </diagram>
</mxfile>
